{
  "accessors": [
    {
      "bufferView": 2,
      "componentType": 5126,
      "count": 220,
      "max": [
        23.05000114440918,
        64.86824035644531,
        0.23000004887580872
      ],
      "min": [
        -23.049999237060547,
        -1.2000000476837158,
        -20.64999771118164
      ],
      "type": "VEC3"
    },
    {
      "bufferView": 2,
      "byteOffset": 2640,
      "componentType": 5126,
      "count": 220,
      "max": [
        1.0,
        1.0,
        1.0
      ],
      "min": [
        -1.0,
        -1.0,
        -1.0
      ],
      "type": "VEC3"
    },
    {
      "bufferView": 0,
      "componentType": 5125,
      "count": 558,
      "type": "SCALAR"
    },
    {
      "bufferView": 2,
      "byteOffset": 5280,
      "componentType": 5126,
      "count": 220,
      "max": [
        23.05000114440918,
        64.86824035644531,
        0.23000004887580872
      ],
      "min": [
        -23.049999237060547,
        -1.2000000476837158,
        -20.64999771118164
      ],
      "type": "VEC3"
    },
    {
      "bufferView": 2,
      "byteOffset": 7920,
      "componentType": 5126,
      "count": 220,
      "max": [
        1.0,
        1.0,
        1.0
      ],
      "min": [
        -1.0,
        -1.0,
        -1.0
      ],
      "type": "VEC3"
    },
    {
      "bufferView": 0,
      "byteOffset": 2232,
      "componentType": 5125,
      "count": 558,
      "type": "SCALAR"
    },
    {
      "bufferView": 2,
      "byteOffset": 10560,
      "componentType": 5126,
      "count": 9785,
      "max": [
        24.63479995727539,
        24.63206672668457,
        7.923100471496582
      ],
      "min": [
        -24.63479995727539,
        -24.63207244873047,
        0.535273551940918
      ],
      "type": "VEC3"
    },
    {
      "bufferView": 2,
      "byteOffset": 127980,
      "componentType": 5126,
      "count": 9785,
      "max": [
        0.9974474310874939,
        0.9973680377006531,
        0.997198760509491
      ],
      "min": [
        -0.9974474310874939,
        -0.9973679184913635,
        -0.997198760509491
      ],
      "type": "VEC3"
    },
    {
      "bufferView": 1,
      "componentType": 5126,
      "count": 9785,
      "max": [
        0.9722222089767456,
        1.0
      ],
      "min": [
        -0.027777791023254395,
        0.6000000238418579
      ],
      "type": "VEC2"
    },
    {
      "bufferView": 0,
      "byteOffset": 4464,
      "componentType": 5125,
      "count": 13608,
      "type": "SCALAR"
    },
    {
      "bufferView": 2,
      "byteOffset": 245400,
      "componentType": 5126,
      "count": 2035,
      "max": [
        21.442718505859375,
        21.440208435058594,
        7.657172203063965
      ],
      "min": [
        -21.442720413208008,
        -21.440208435058594,
        0.801201581954956
      ],
      "type": "VEC3"
    },
    {
      "bufferView": 2,
      "byteOffset": 269820,
      "componentType": 5126,
      "count": 2035,
      "max": [
        0.9961362481117249,
        0.9962528944015503,
        0.9994326233863831
      ],
      "min": [
        -0.9961362481117249,
        -0.9962529540061951,
        -0.9994326233863831
      ],
      "type": "VEC3"
    },
    {
      "bufferView": 1,
      "byteOffset": 78280,
      "componentType": 5126,
      "count": 2035,
      "max": [
        0.9722222089767456,
        1.0
      ],
      "min": [
        -0.027777791023254395,
        1.0
      ],
      "type": "VEC2"
    },
    {
      "bufferView": 0,
      "byteOffset": 58896,
      "componentType": 5125,
      "count": 3024,
      "type": "SCALAR"
    },
    {
      "bufferView": 2,
      "byteOffset": 294240,
      "componentType": 5126,
      "count": 738,
      "max": [
        18.464008331298828,
        18.461843490600586,
        7.018136024475098
      ],
      "min": [
        -18.464008331298828,
        -18.461843490600586,
        1.4402379989624023
      ],
      "type": "VEC3"
    },
    {
      "bufferView": 2,
      "byteOffset": 303096,
      "componentType": 5126,
      "count": 738,
      "max": [
        0.6285175681114197,
        0.6287713646888733,
        0.9999420642852783
      ],
      "min": [
        -0.6285143494606018,
        -0.6287728548049927,
        -0.9999420642852783
      ],
      "type": "VEC3"
    },
    {
      "bufferView": 1,
      "byteOffset": 94560,
      "componentType": 5126,
      "count": 738,
      "max": [
        0.9722222089767456,
        1.0
      ],
      "min": [
        -0.027777791023254395,
        1.0
      ],
      "type": "VEC2"
    },
    {
      "bufferView": 0,
      "byteOffset": 70992,
      "componentType": 5125,
      "count": 2808,
      "type": "SCALAR"
    },
    {
      "bufferView": 2,
      "byteOffset": 311952,
      "componentType": 5126,
      "count": 516,
      "max": [
        6.3104143142700195,
        6.309675216674805,
        7.657172203063965
      ],
      "min": [
        -6.3104143142700195,
        -6.309675216674805,
        0.801201581954956
      ],
      "type": "VEC3"
    },
    {
      "bufferView": 2,
      "byteOffset": 318144,
      "componentType": 5126,
      "count": 516,
      "max": [
        0.9961361885070801,
        0.9962528347969055,
        0.9999917149543762
      ],
      "min": [
        -0.9961361885070801,
        -0.9962528944015503,
        -1.0
      ],
      "type": "VEC3"
    },
    {
      "bufferView": 1,
      "byteOffset": 100464,
      "componentType": 5126,
      "count": 516,
      "max": [
        0.9722222089767456,
        1.0
      ],
      "min": [
        -0.027777791023254395,
        1.0
      ],
      "type": "VEC2"
    },
    {
      "bufferView": 0,
      "byteOffset": 82224,
      "componentType": 5125,
      "count": 648,
      "type": "SCALAR"
    },
    {
      "bufferView": 3,
      "componentType": 5126,
      "count": 32,
      "max": [
        1.0333333015441895
      ],
      "min": [
        0.0
      ],
      "type": "SCALAR"
    },
    {
      "bufferView": 4,
      "componentType": 5126,
      "count": 32,
      "max": [
        5.4935661826769984e-17,
        1.0,
        1.8013064860292015e-16,
        1.0
      ],
      "min": [
        -1.3237575159989035e-16,
        -0.8314695954322815,
        -1.8013067507269975e-16,
        -0.4713967442512512
      ],
      "type": "VEC4"
    }
  ],
  "animations": [
    {
      "channels": [
        {
          "sampler": 0,
          "target": {
            "node": 4,
            "path": "rotation"
          }
        }
      ],
      "name": "Take 001",
      "samplers": [
        {
          "input": 22,
          "interpolation": "LINEAR",
          "output": 23
        }
      ]
    }
  ],
  "asset": {
    "extras": {
      "author": "Fred Drabble (https://sketchfab.com/FredDrabble)",
      "license": "CC-BY-4.0 (http://creativecommons.org/licenses/by/4.0/)",
      "source": "https://sketchfab.com/3d-models/coin-9e14c2b016e245a98259530ba5bb797a",
      "title": "COIN"
    },
    "generator": "Sketchfab-12.67.0",
    "version": "2.0"
  },
  "bufferViews": [
    {
      "buffer": 0,
      "byteLength": 84816,
      "name": "floatBufferViews",
      "target": 34963
    },
    {
      "buffer": 0,
      "byteLength": 104592,
      "byteOffset": 84816,
      "byteStride": 8,
      "name": "floatBufferViews",
      "target": 34962
    },
    {
      "buffer": 0,
      "byteLength": 324336,
      "byteOffset": 189408,
      "byteStride": 12,
      "name": "floatBufferViews",
      "target": 34962
    },
    {
      "buffer": 0,
      "byteLength": 128,
      "byteOffset": 513744,
      "name": "floatBufferViews"
    },
    {
      "buffer": 0,
      "byteLength": 512,
      "byteOffset": 513872,
      "byteStride": 16,
      "name": "floatBufferViews"
    }
  ],
  "buffers": [
    {
      "byteLength": 514384,
      "uri": "scene.bin"
    }
  ],
  "extensionsUsed": [
    "KHR_materials_transmission"
  ],
  "materials": [
    {
      "doubleSided": true,
      "emissiveFactor": [
        0.0,
        0.941422808673099,
        0.8192930887818723
      ],
      "name": "03_-_Default",
      "pbrMetallicRoughness": {
        "baseColorFactor": [
          0.008709197810868,
          0.017967624853258,
          0.015692258041308,
          1.0
        ],
        "metallicFactor": 0.0,
        "roughnessFactor": 0.8929713596
      }
    },
    {
      "doubleSided": true,
      "name": "02_-_Default",
      "pbrMetallicRoughness": {
        "baseColorFactor": [
          0.7579697625,
          0.2299958846,
          0.0,
          1.0
        ],
        "roughnessFactor": 0.0
      }
    },
    {
      "alphaMode": "BLEND",
      "doubleSided": true,
      "emissiveFactor": [
        1.0,
        0.0,
        0.0
      ],
      "extensions": {
        "KHR_materials_transmission": {
          "transmissionFactor": 0.23608993899999997
        }
      },
      "name": "01_-_Default",
      "pbrMetallicRoughness": {
        "baseColorFactor": [
          1.0,
          0.0,
          0.0,
          0.763910061
        ],
        "metallicFactor": 0.0,
        "roughnessFactor": 0.0
      }
    },
    {
      "doubleSided": true,
      "name": "07_-_Default",
      "pbrMetallicRoughness": {
        "baseColorFactor": [
          0.235294,
          0.235294,
          0.235294,
          1.0
        ],
        "roughnessFactor": 0.0
      }
    }
  ],
  "meshes": [
    {
      "name": "Text005_03 - Default_0",
      "primitives": [
        {
          "attributes": {
            "NORMAL": 1,
            "POSITION": 0
          },
          "indices": 2,
          "material": 0,
          "mode": 4
        }
      ]
    },
    {
      "name": "Text006_03 - Default_0",
      "primitives": [
        {
          "attributes": {
            "NORMAL": 4,
            "POSITION": 3
          },
          "indices": 5,
          "material": 0,
          "mode": 4
        }
      ]
    },
    {
      "name": "Cylinder003_02 - Default_0",
      "primitives": [
        {
          "attributes": {
            "NORMAL": 7,
            "POSITION": 6,
            "TEXCOORD_0": 8
          },
          "indices": 9,
          "material": 1,
          "mode": 4
        }
      ]
    },
    {
      "name": "Cylinder003_01 - Default_0",
      "primitives": [
        {
          "attributes": {
            "NORMAL": 11,
            "POSITION": 10,
            "TEXCOORD_0": 12
          },
          "indices": 13,
          "material": 2,
          "mode": 4
        }
      ]
    },
    {
      "name": "Cylinder003_03 - Default_0",
      "primitives": [
        {
          "attributes": {
            "NORMAL": 15,
            "POSITION": 14,
            "TEXCOORD_0": 16
          },
          "indices": 17,
          "material": 0,
          "mode": 4
        }
      ]
    },
    {
      "name": "Cylinder003_07 - Default_0",
      "primitives": [
        {
          "attributes": {
            "NORMAL": 19,
            "POSITION": 18,
            "TEXCOORD_0": 20
          },
          "indices": 21,
          "material": 3,
          "mode": 4
        }
      ]
    }
  ],
  "nodes": [
    {
      "children": [
        1
      ],
      "matrix": [
        1.0,
        0.0,
        0.0,
        0.0,
        0.0,
        2.220446049250313e-16,
        -1.0,
        0.0,
        0.0,
        1.0,
        2.220446049250313e-16,
        0.0,
        0.0,
        0.0,
        0.0,
        1.0
      ],
      "name": "Sketchfab_model"
    },
    {
      "children": [
        2
      ],
      "matrix": [
        1.0,
        0.0,
        0.0,
        0.0,
        0.0,
        0.0,
        1.0,
        0.0,
        0.0,
        -1.0,
        0.0,
        0.0,
        0.0,
        0.0,
        0.0,
        1.0
      ],
      "name": "16339229ed4647e18e84ef222f30af17.fbx"
    },
    {
      "children": [
        3
      ],
      "name": "Object_2"
    },
    {
      "children": [
        4
      ],
      "name": "RootNode"
    },
    {
      "children": [
        5,
        7,
        10
      ],
      "name": "coin 2",
      "rotation": [
        -3.774895063202166e-08,
        -0.0,
        0.0,
        1.0
      ],
      "translation": [
        21.663415908813477,
        23.537172317504883,
        -21.634361267089844
      ]
    },
    {
      "children": [
        6
      ],
      "name": "Text005",
      "rotation": [
        -6.25826824723759e-24,
        -0.0,
        0.0,
        1.0
      ],
      "scale": [
        0.1321740448474884,
        0.1321740448474884,
        0.1321740448474884
      ],
      "translation": [
        -0.06981658935546875,
        -3.711414337158203,
        4.28472900390625
      ]
    },
    {
      "mesh": 0,
      "name": "Text005_03 - Default_0"
    },
    {
      "children": [
        8
      ],
      "name": "Text006",
      "rotation": [
        -6.123234262925839e-17,
        1.0,
        6.123234262925839e-17,
        4.371138828673793e-08
      ],
      "scale": [
        0.1321740448474884,
        0.1321740448474884,
        0.1321740448474884
      ],
      "translation": [
        -0.06981658935546875,
        0.518157958984375,
        -2.935232162475586
      ]
    },
    {
      "children": [
        9
      ],
      "matrix": [
        1.0,
        0.0,
        -0.0,
        0.0,
        0.0,
        1.0,
        0.0,
        0.0,
        0.0,
        0.0,
        1.0,
        0.0,
        0.0,
        -32.00000762939453,
        10.209999084472656,
        1.0
      ],
      "name": "Object_8"
    },
    {
      "mesh": 1,
      "name": "Text006_03 - Default_0"
    },
    {
      "children": [
        11,
        12,
        13,
        14
      ],
      "name": "Cylinder003",
      "rotation": [
        -6.617444900424222e-24,
        -0.0,
        0.0,
        1.0
      ],
      "translation": [
        0.0,
        3.814697265625e-06,
        -4.203277587890625
      ]
    },
    {
      "mesh": 2,
      "name": "Cylinder003_02 - Default_0"
    },
    {
      "mesh": 3,
      "name": "Cylinder003_01 - Default_0"
    },
    {
      "mesh": 4,
      "name": "Cylinder003_03 - Default_0"
    },
    {
      "mesh": 5,
      "name": "Cylinder003_07 - Default_0"
    }
  ],
  "scene": 0,
  "scenes": [
    {
      "name": "Sketchfab_Scene",
      "nodes": [
        0
      ]
    }
  ]
}
