{
  "accessors": [
    {
      "bufferView": 2,
      "componentType": 5126,
      "count": 15786,
      "max": [
        0.7974955439567566,
        0.5309926867485046,
        0.09400000423192978
      ],
      "min": [
        -0.7944976091384888,
        -0.5225701928138733,
        -0.09400000423192978
      ],
      "type": "VEC3"
    },
    {
      "bufferView": 2,
      "byteOffset": 189432,
      "componentType": 5126,
      "count": 15786,
      "max": [
        1.0,
        1.0,
        1.0
      ],
      "min": [
        -1.0,
        -1.0,
        -1.0
      ],
      "type": "VEC3"
    },
    {
      "bufferView": 1,
      "componentType": 5126,
      "count": 15786,
      "max": [
        0.9325000643730164,
        0.9357204437255859
      ],
      "min": [
        0.06916666775941849,
        0.058239877223968506
      ],
      "type": "VEC2"
    },
    {
      "bufferView": 0,
      "componentType": 5125,
      "count": 88440,
      "type": "SCALAR"
    }
  ],
  "asset": {
    "extras": {
      "author": "stevenjcasey (https://sketchfab.com/stevenjcasey)",
      "license": "CC-BY-4.0 (http://creativecommons.org/licenses/by/4.0/)",
      "source": "https://sketchfab.com/3d-models/tdv-finish-line-2021-v1-a9f596166a3946038e5afc5d37756119",
      "title": "TDV Finish Line 2021 V1"
    },
    "generator": "Sketchfab-12.66.0",
    "version": "2.0"
  },
  "bufferViews": [
    {
      "buffer": 0,
      "byteLength": 353760,
      "name": "floatBufferViews",
      "target": 34963
    },
    {
      "buffer": 0,
      "byteLength": 126288,
      "byteOffset": 353760,
      "byteStride": 8,
      "name": "floatBufferViews",
      "target": 34962
    },
    {
      "buffer": 0,
      "byteLength": 378864,
      "byteOffset": 480048,
      "byteStride": 12,
      "name": "floatBufferViews",
      "target": 34962
    }
  ],
  "buffers": [
    {
      "byteLength": 858912,
      "uri": "scene.bin"
    }
  ],
  "images": [
    {
      "uri": "textures/material_baseColor.png"
    }
  ],
  "materials": [
    {
      "doubleSided": true,
      "name": "material",
      "pbrMetallicRoughness": {
        "baseColorTexture": {
          "index": 0
        },
        "metallicFactor": 0.0
      }
    }
  ],
  "meshes": [
    {
      "name": "Object_0",
      "primitives": [
        {
          "attributes": {
            "NORMAL": 1,
            "POSITION": 0,
            "TEXCOORD_0": 2
          },
          "indices": 3,
          "material": 0,
          "mode": 4
        }
      ]
    }
  ],
  "nodes": [
    {
      "children": [
        1
      ],
      "matrix": [
        1.0,
        0.0,
        0.0,
        0.0,
        0.0,
        2.220446049250313e-16,
        -1.0,
        0.0,
        0.0,
        1.0,
        2.220446049250313e-16,
        0.0,
        0.0,
        0.0,
        0.0,
        1.0
      ],
      "name": "Sketchfab_model"
    },
    {
      "children": [
        2
      ],
      "name": "root"
    },
    {
      "children": [
        3
      ],
      "matrix": [
        1.0,
        0.0,
        0.0,
        0.0,
        0.0,
        2.220446049250313e-16,
        1.0,
        0.0,
        0.0,
        -1.0,
        2.220446049250313e-16,
        0.0,
        0.0,
        0.0,
        0.0,
        1.0
      ],
      "name": "GLTF_SceneRootNode"
    },
    {
      "children": [
        4
      ],
      "name": "Root_0"
    },
    {
      "children": [
        5
      ],
      "name": "Project2D Root_1"
    },
    {
      "children": [
        6
      ],
      "matrix": [
        3.2542495727539063,
        0.0,
        -0.39957159757614136,
        0.0,
        0.0,
        3.278688430786133,
        0.0,
        0.0,
        0.39957159757614136,
        0.0,
        3.2542495727539063,
        0.0,
        0.0,
        0.0,
        -3.4134719371795654,
        1.0
      ],
      "name": "Project2D_2"
    },
    {
      "mesh": 0,
      "name": "Object_6"
    }
  ],
  "samplers": [
    {
      "magFilter": 9729,
      "minFilter": 9729,
      "wrapS": 10497,
      "wrapT": 10497
    }
  ],
  "scene": 0,
  "scenes": [
    {
      "name": "Sketchfab_Scene",
      "nodes": [
        0
      ]
    }
  ],
  "textures": [
    {
      "sampler": 0,
      "source": 0
    }
  ]
}
